FFmpeg version SVN-r25716, Copyright (c) 2000-2010 the FFmpeg developers  built on Nov 10 2010 12:23:18 with gcc 4.1.2 20080704 (Red Hat 4.1.2-48)  configuration: --enable-libmp3lame --enable-shared --disable-mmx --arch=x86_64  libavutil     50.33. 0 / 50.33. 0  libavcore      0.12. 1 /  0.12. 1  libavcodec    52.94. 4 / 52.94. 4  libavformat   52.84. 0 / 52.84. 0  libavdevice   52. 2. 2 / 52. 2. 2  libavfilter    1.59. 0 /  1.59. 0  libswscale     0.12. 0 /  0.12. 0Input #0, avi, from '/RAID10/data/converted_video_files/9687.avi':  Duration: 00:02:20.16, start: 0.000000, bitrate: 1888 kb/s    Stream #0.0: Video: indeo5, yuv410p, 320x240, 25 fps, 25 tbr, 25 tbn, 25 tbc    Stream #0.1: Audio: pcm_s16le, 44100 Hz, 2 channels, s16, 1411 kb/s[buffer @ 0x1684b5c0] w:320 h:240 pixfmt:yuv410p[ffsink @ 0x1684b830] auto-inserting filter 'auto-inserted scaler 0' between the filter 'src' and the filter 'out'[scale @ 0x1684bb50] w:320 h:240 fmt:yuv410p -> w:320 h:240 fmt:yuv420p flags:0x4Output #0, flv, to '/RAID10/data/converted_video_files/9687.flv':  Metadata:    encoder         : Lavf52.84.0    Stream #0.0: Video: flv, yuv420p, 320x240, q=2-31, 600 kb/s, 1k tbn, 24 tbc    Stream #0.1: Audio: libmp3lame, 22050 Hz, 2 channels, s16, 96 kb/sStream mapping:  Stream #0.0 -> #0.0  Stream #0.1 -> #0.1Press [q] to stop encodingframe=  108 fps=  0 q=2.3 size=     422kB time=3.94 bitrate= 876.2kbits/s dup=0 drop=4    frame=  234 fps=232 q=2.0 size=     810kB time=8.93 bitrate= 742.7kbits/s dup=0 drop=10    frame=  357 fps=237 q=2.0 size=    1211kB time=13.92 bitrate= 712.3kbits/s dup=0 drop=15    frame=  480 fps=239 q=2.0 size=    1647kB time=19.67 bitrate= 686.0kbits/s dup=0 drop=20    frame=  605 fps=241 q=2.0 size=    2048kB time=24.95 bitrate= 672.4kbits/s dup=0 drop=25    frame=  726 fps=241 q=2.0 size=    2471kB time=29.94 bitrate= 676.2kbits/s dup=0 drop=30    frame=  851 fps=242 q=2.0 size=    2885kB time=34.93 bitrate= 676.7kbits/s dup=0 drop=35    frame=  975 fps=243 q=2.0 size=    3304kB time=39.94 bitrate= 677.7kbits/s dup=0 drop=40    frame= 1098 fps=243 q=2.0 size=    3718kB time=44.93 bitrate= 677.9kbits/s dup=0 drop=46    frame= 1223 fps=244 q=2.0 size=    4120kB time=49.95 bitrate= 675.7kbits/s dup=0 drop=51    frame= 1344 fps=244 q=2.0 size=    4568kB time=55.46 bitrate= 674.8kbits/s dup=0 drop=56    frame= 1466 fps=244 q=2.0 size=    5028kB time=60.94 bitrate= 675.9kbits/s dup=0 drop=61    frame= 1590 fps=244 q=2.0 size=    5447kB time=65.93 bitrate= 676.7kbits/s dup=0 drop=66    frame= 1715 fps=244 q=2.0 size=    5869kB time=70.92 bitrate= 677.9kbits/s dup=0 drop=71    frame= 1838 fps=244 q=2.0 size=    6290kB time=75.94 bitrate= 678.6kbits/s dup=0 drop=76    frame= 1963 fps=245 q=2.0 size=    6698kB time=80.93 bitrate= 678.0kbits/s dup=0 drop=82    frame= 2088 fps=245 q=2.0 size=    7119kB time=85.94 bitrate= 678.6kbits/s dup=0 drop=87    frame= 2208 fps=245 q=2.0 size=    7573kB time=91.22 bitrate= 680.1kbits/s dup=0 drop=92    frame= 2331 fps=245 q=2.0 size=    8056kB time=96.94 bitrate= 680.8kbits/s dup=0 drop=97    frame= 2458 fps=245 q=2.0 size=    8483kB time=101.93 bitrate= 681.7kbits/s dup=0 drop=102    frame= 2583 fps=245 q=2.0 size=    8913kB time=106.95 bitrate= 682.8kbits/s dup=0 drop=107    frame= 2710 fps=246 q=2.0 size=    9333kB time=111.94 bitrate= 683.1kbits/s dup=0 drop=113    frame= 2832 fps=246 q=2.0 size=    9820kB time=117.60 bitrate= 684.1kbits/s dup=0 drop=118    frame= 2954 fps=245 q=2.0 size=   10278kB time=122.93 bitrate= 684.9kbits/s dup=0 drop=123    frame= 3082 fps=246 q=2.0 size=   10690kB time=127.92 bitrate= 684.6kbits/s dup=0 drop=128    frame= 3207 fps=246 q=2.0 size=   11123kB time=132.94 bitrate= 685.4kbits/s dup=0 drop=133    frame= 3332 fps=246 q=2.0 size=   11568kB time=137.93 bitrate= 687.1kbits/s dup=0 drop=139    frame= 3364 fps=246 q=2.0 Lsize=   11775kB time=140.17 bitrate= 688.2kbits/s dup=0 drop=140    video:9995kB audio:1643kB global headers:0kB muxing overhead 1.174970%